# xmcd CD database file
#
# Track frame offsets:
#	150
#	19660
#	43319
#	55543
#	70318
#	84584
#	111164
#	124843
#	136921
#	153754
#	172186
#	184608
#	200418
#	215812
#	236628
#	269579
#	296622
#
# Disc length: 4340 seconds
#
# Revision: 3
# Processed by: cddbd v1.5.2PL0 Copyright (c) Steve Scherf et al.
# Submitted via: CDex 1.51
#
DISCID=0010f211
DTITLE=Various Artist - J.S. Bach (Sonates et Partitas) - Brice Pauset (Kontrapartita)  {David Grimal, violon}  [CD1]
DYEAR=2008
DGENRE=Classique
TTITLE0=J.S. Bach - Sonata N°1 en sol mineur BWV.1001 - I. Adagio
TTITLE1=J.S. Bach - Sonata N°1 en sol mineur BWV.1001 - II. Fuga (Allegro)
TTITLE2=J.S. Bach - Sonata N°1 en sol mineur BWV.1001 - III. Siciliano
TTITLE3=J.S. Bach - Sonata N°1 en sol mineur BWV.1001 - IV. Presto
TTITLE4=Brice Pauset - Kontrapartita - Corrente
TTITLE5=J.S. Bach - Partia N°1 en si mineur BWV.1002 - I. Allemande
TTITLE6=J.S. Bach - Partia N°1 en si mineur BWV.1002 - II. Double
TTITLE7=J.S. Bach - Partia N°1 en si mineur BWV.1002 - III. Courante
TTITLE8=J.S. Bach - Partia N°1 en si mineur BWV.1002 - IV. Double
TTITLE9=J.S. Bach - Partia N°1 en si mineur BWV.1002 - V. Sarabande
TTITLE10=J.S. Bach - Partia N°1 en si mineur BWV.1002 - VI. Double
TTITLE11=J.S. Bach - Partia N°1 en si mineur BWV.1002 - VII. Bourrée
TTITLE12=J.S. Bach - Partia N°1 en si mineur BWV.1002 - VIII. Double
TTITLE13=J.S. Bach - Sonata N°2 en la mineur BWV 1003 - I. Grave
TTITLE14=J.S. Bach - Sonata N°2 en la mineur BWV 1003 - II. Fugue
TTITLE15=J.S. Bach - Sonata N°2 en la mineur BWV 1003 - III. Andante
TTITLE16=J.S. Bach - Sonata N°2 en la mineur BWV 1003 - IV. Allegro
EXTD=YEAR: 2008
EXTT0=
EXTT1=
EXTT2=
EXTT3=
EXTT4=
EXTT5=
EXTT6=
EXTT7=
EXTT8=
EXTT9=
EXTT10=
EXTT11=
EXTT12=
EXTT13=
EXTT14=
EXTT15=
EXTT16=
PLAYORDER=
